<?xml version="1.0" standalone="no"?>
<!DOCTYPE svg PUBLIC "-//W3C//DTD SVG 20010904//EN"
 "http://www.w3.org/TR/2001/REC-SVG-20010904/DTD/svg10.dtd">
<svg version="1.0" xmlns="http://www.w3.org/2000/svg"
 width="200.000000pt" height="200.000000pt" viewBox="0 0 200.000000 200.000000"
 preserveAspectRatio="xMidYMid meet">
<metadata>
Created by potrace 1.16, written by Peter Selinger 2001-2019
</metadata>
<g transform="translate(0.000000,200.000000) scale(0.100000,-0.100000)"
fill="#000000" stroke="none">
<path d="M870 1558 c0 -4 17 -8 37 -10 34 -3 38 -6 46 -40 8 -33 6 -42 -18
-70 -21 -25 -26 -39 -22 -65 9 -54 -12 -67 -173 -106 -173 -42 -249 -69 -284
-102 -80 -74 35 -166 190 -152 84 8 117 24 196 96 37 34 69 57 73 51 7 -12
130 -12 160 -1 16 6 34 -5 90 -56 78 -71 114 -85 215 -86 82 -1 132 16 165 54
32 39 32 59 -2 91 -41 39 -105 63 -276 105 -84 20 -159 42 -166 50 -9 8 -14
28 -13 52 2 29 -4 46 -24 70 -25 30 -26 35 -15 72 11 36 15 39 46 39 19 0 35
3 35 8 0 4 -18 6 -39 4 -34 -3 -41 -9 -56 -43 -10 -21 -24 -39 -31 -39 -8 0
-23 18 -33 39 -18 34 -25 39 -61 43 -22 2 -40 0 -40 -4z"/>
<path d="M880 1029 c0 -4 -3 -14 -6 -23 -9 -22 65 -39 158 -34 81 3 104 14 94
44 -5 17 -18 19 -126 20 -66 0 -120 -3 -120 -7z"/>
<path d="M280 301 c0 -51 4 -64 35 -104 19 -25 35 -57 35 -71 0 -24 3 -26 45
-26 42 0 45 2 45 26 0 15 16 48 35 74 30 41 35 55 35 104 l0 56 -45 0 -45 0 0
-42 c0 -24 -6 -51 -13 -60 -12 -15 -14 -15 -25 3 -7 10 -12 37 -12 59 l0 40
-45 0 -45 0 0 -59z"/>
<path d="M540 230 l0 -130 100 0 100 0 0 35 0 35 -55 0 c-30 0 -55 5 -55 10 0
6 18 10 40 10 l40 0 0 40 0 40 -40 0 c-22 0 -40 5 -40 10 0 6 25 10 55 10 l55
0 0 35 0 35 -100 0 -100 0 0 -130z"/>
<path d="M809 333 c-32 -83 -39 -111 -39 -169 l0 -64 45 0 c43 0 45 1 45 30 0
25 4 30 25 30 21 0 25 -5 25 -30 0 -29 2 -30 45 -30 l45 0 0 68 c0 44 -7 89
-22 130 l-22 62 -68 0 c-65 0 -69 -1 -79 -27z"/>
<path d="M1040 230 l0 -130 45 0 c45 0 45 0 45 35 0 35 0 35 43 35 61 0 77 20
77 97 0 84 -12 93 -123 93 l-87 0 0 -130z"/>
<path d="M1280 230 l0 -130 100 0 100 0 0 35 0 35 -55 0 c-65 0 -74 17 -12 22
41 3 42 4 42 38 0 34 -1 35 -42 38 -62 5 -53 22 12 22 l55 0 0 35 0 35 -100 0
-100 0 0 -130z"/>
<path d="M1530 340 c-23 -23 -28 -96 -7 -124 7 -9 32 -20 55 -23 65 -9 60 -23
-7 -23 l-61 0 0 -35 0 -35 89 0 c110 0 121 8 121 86 0 53 -1 55 -35 70 -19 7
-45 15 -57 16 -13 0 0 4 27 7 49 6 50 6 53 44 l3 37 -80 0 c-68 0 -84 -3 -101
-20z"/>
</g>
</svg>
